<svg xmlns="http://www.w3.org/2000/svg" xmlns:xlink="http://www.w3.org/1999/xlink" width="1024" zoomAndPan="magnify" viewBox="0 0 768 767.999994" height="1024" preserveAspectRatio="xMidYMid meet" version="1.0"><defs><clipPath id="5cfcb827f4"><path d="M 72 44.25 L 663 44.25 L 663 745.746094 L 72 745.746094 Z M 72 44.25 " clip-rule="nonzero"/></clipPath></defs><g clip-path="url(#5cfcb827f4)"><path fill="#1edfcd" d="M 367.320312 745.984375 L 346.859375 728.445312 C 318.652344 704.832031 72.367188 492.128906 72.367188 336.546875 C 72.367188 258.320312 103.445312 183.296875 158.757812 127.984375 C 214.070312 72.671875 289.09375 41.597656 367.320312 41.597656 C 445.542969 41.597656 520.566406 72.671875 575.882812 127.984375 C 631.195312 183.296875 662.265625 258.320312 662.265625 336.546875 C 662.265625 492.128906 415.984375 704.832031 387.894531 728.566406 Z M 367.320312 105.375 C 306.03125 105.441406 247.269531 129.820312 203.933594 173.160156 C 160.59375 216.496094 136.214844 275.257812 136.148438 336.546875 C 136.148438 434.289062 287.667969 590.425781 367.320312 661.890625 C 446.96875 590.402344 598.492188 434.171875 598.492188 336.546875 C 598.421875 275.257812 574.046875 216.496094 530.707031 173.160156 C 487.367188 129.820312 428.609375 105.441406 367.320312 105.375 Z M 367.320312 105.375 " fill-opacity="1" fill-rule="nonzero"/></g><path fill="#1edfcd" d="M 367.320312 453.457031 C 344.195312 453.457031 321.589844 446.597656 302.363281 433.753906 C 283.136719 420.90625 268.152344 402.644531 259.300781 381.28125 C 250.453125 359.917969 248.136719 336.410156 252.648438 313.730469 C 257.160156 291.050781 268.296875 270.21875 284.648438 253.867188 C 300.996094 237.515625 321.832031 226.382812 344.507812 221.871094 C 367.1875 217.359375 390.695312 219.675781 412.0625 228.523438 C 433.425781 237.375 451.683594 252.359375 464.53125 271.585938 C 477.378906 290.8125 484.234375 313.417969 484.234375 336.539062 C 484.234375 367.546875 471.914062 397.285156 449.992188 419.210938 C 428.066406 441.136719 398.328125 453.457031 367.320312 453.457031 Z M 367.320312 278.082031 C 355.757812 278.082031 344.453125 281.511719 334.839844 287.933594 C 325.226562 294.359375 317.734375 303.488281 313.3125 314.167969 C 308.886719 324.851562 307.730469 336.605469 309.984375 347.945312 C 312.238281 359.285156 317.808594 369.699219 325.984375 377.875 C 334.160156 386.050781 344.574219 391.621094 355.914062 393.875 C 367.253906 396.132812 379.007812 394.972656 389.691406 390.546875 C 400.371094 386.125 409.5 378.632812 415.925781 369.019531 C 422.347656 359.40625 425.777344 348.101562 425.777344 336.539062 C 425.777344 321.035156 419.617188 306.167969 408.65625 295.203125 C 397.691406 284.242188 382.824219 278.082031 367.320312 278.082031 Z M 367.320312 278.082031 " fill-opacity="1" fill-rule="nonzero"/></svg>