<svg xmlns="http://www.w3.org/2000/svg" xmlns:xlink="http://www.w3.org/1999/xlink" width="1024" zoomAndPan="magnify" viewBox="0 0 768 767.999994" height="1024" preserveAspectRatio="xMidYMid meet" version="1.0"><defs><clipPath id="1ca00b401e"><path d="M 25.5 45.109375 L 714.75 45.109375 L 714.75 734.429688 L 25.5 734.429688 Z M 25.5 45.109375 " clip-rule="nonzero"/></clipPath></defs><g clip-path="url(#1ca00b401e)"><path fill="#1edfcd" d="M 66.976562 236.671875 C 57.359375 239.421875 48.625 244.632812 41.640625 251.792969 C 34.65625 258.949219 29.660156 267.808594 27.152344 277.492188 C 24.640625 287.175781 24.703125 297.34375 27.332031 306.996094 C 29.957031 316.644531 35.058594 325.441406 42.132812 332.515625 L 140.128906 430.398438 L 140.128906 619.5625 L 329.492188 619.5625 L 428.148438 718.074219 C 433.441406 723.421875 439.738281 727.667969 446.679688 730.566406 C 453.621094 733.464844 461.070312 734.960938 468.59375 734.964844 C 473.535156 734.953125 478.453125 734.316406 483.242188 733.066406 C 492.917969 730.632812 501.78125 725.6875 508.941406 718.734375 C 516.097656 711.78125 521.304688 703.066406 524.023438 693.460938 L 714.5625 45.730469 Z M 82.945312 291.90625 L 572.015625 147.722656 L 197.628906 521.507812 L 197.628906 406.617188 Z M 468.960938 677.464844 L 353.300781 562.117188 L 238.414062 562.117188 L 612.746094 188.105469 Z M 468.960938 677.464844 " fill-opacity="1" fill-rule="nonzero"/></g></svg>