<svg xmlns="http://www.w3.org/2000/svg" xmlns:xlink="http://www.w3.org/1999/xlink" width="1024" zoomAndPan="magnify" viewBox="0 0 768 767.999994" height="1024" preserveAspectRatio="xMidYMid meet" version="1.0"><defs><clipPath id="ed6288712a"><path d="M 52 15.914062 L 715 15.914062 L 715 743.554688 L 52 743.554688 Z M 52 15.914062 " clip-rule="nonzero"/></clipPath></defs><path fill="#bce3c9" d="M 699.5 531.234375 C 699.5 534.332031 699.425781 537.429688 699.273438 540.523438 C 699.121094 543.617188 698.894531 546.707031 698.589844 549.789062 C 698.285156 552.871094 697.90625 555.945312 697.453125 559.011719 C 697 562.074219 696.46875 565.125 695.863281 568.164062 C 695.261719 571.203125 694.582031 574.226562 693.828125 577.230469 C 693.074219 580.234375 692.25 583.21875 691.351562 586.183594 C 690.449219 589.148438 689.480469 592.089844 688.4375 595.007812 C 687.390625 597.925781 686.277344 600.8125 685.09375 603.675781 C 683.90625 606.539062 682.652344 609.371094 681.328125 612.171875 C 680.003906 614.972656 678.609375 617.738281 677.148438 620.46875 C 675.6875 623.203125 674.164062 625.898438 672.570312 628.554688 C 670.976562 631.210938 669.320312 633.828125 667.597656 636.402344 C 665.878906 638.980469 664.09375 641.511719 662.25 644 C 660.402344 646.488281 658.496094 648.929688 656.53125 651.324219 C 654.566406 653.71875 652.542969 656.066406 650.464844 658.359375 C 648.382812 660.65625 646.246094 662.898438 644.054688 665.089844 C 641.867188 667.28125 639.621094 669.417969 637.328125 671.496094 C 635.03125 673.578125 632.6875 675.601562 630.292969 677.566406 C 627.898438 679.53125 625.457031 681.4375 622.96875 683.28125 C 620.480469 685.128906 617.945312 686.910156 615.371094 688.632812 C 612.792969 690.351562 610.179688 692.011719 607.519531 693.601562 C 604.863281 695.195312 602.167969 696.722656 599.4375 698.183594 C 596.703125 699.644531 593.9375 701.035156 591.136719 702.359375 C 588.335938 703.683594 585.503906 704.941406 582.644531 706.125 C 579.78125 707.3125 576.890625 708.425781 573.972656 709.46875 C 571.058594 710.511719 568.117188 711.484375 565.152344 712.382812 C 562.1875 713.285156 559.203125 714.109375 556.195312 714.863281 C 553.191406 715.613281 550.167969 716.292969 547.132812 716.898438 C 544.09375 717.503906 541.042969 718.03125 537.976562 718.484375 C 534.910156 718.941406 531.839844 719.320312 528.753906 719.625 C 525.671875 719.925781 522.582031 720.15625 519.488281 720.308594 C 516.394531 720.460938 513.296875 720.535156 510.199219 720.535156 C 507.101562 720.535156 504.007812 720.460938 500.910156 720.308594 C 497.816406 720.15625 494.730469 719.925781 491.644531 719.625 C 488.5625 719.320312 485.488281 718.941406 482.425781 718.484375 C 479.359375 718.03125 476.308594 717.503906 473.269531 716.898438 C 470.230469 716.292969 467.210938 715.613281 464.203125 714.863281 C 461.199219 714.109375 458.214844 713.285156 455.25 712.382812 C 452.285156 711.484375 449.34375 710.511719 446.425781 709.46875 C 443.507812 708.425781 440.621094 707.3125 437.757812 706.125 C 434.894531 704.941406 432.0625 703.683594 429.261719 702.359375 C 426.464844 701.035156 423.695312 699.644531 420.964844 698.183594 C 418.230469 696.722656 415.539062 695.195312 412.878906 693.601562 C 410.222656 692.011719 407.605469 690.351562 405.03125 688.632812 C 402.453125 686.910156 399.921875 685.128906 397.433594 683.28125 C 394.945312 681.4375 392.503906 679.53125 390.109375 677.566406 C 387.714844 675.601562 385.367188 673.578125 383.074219 671.496094 C 380.777344 669.417969 378.535156 667.28125 376.34375 665.089844 C 374.152344 662.898438 372.019531 660.65625 369.9375 658.359375 C 367.855469 656.066406 365.832031 653.71875 363.867188 651.324219 C 361.902344 648.929688 359.996094 646.488281 358.152344 644 C 356.304688 641.511719 354.523438 638.980469 352.800781 636.402344 C 351.082031 633.828125 349.425781 631.210938 347.832031 628.554688 C 346.238281 625.898438 344.710938 623.203125 343.25 620.46875 C 341.789062 617.738281 340.398438 614.972656 339.074219 612.171875 C 337.75 609.371094 336.496094 606.539062 335.308594 603.675781 C 334.125 600.8125 333.007812 597.925781 331.964844 595.007812 C 330.921875 592.089844 329.949219 589.148438 329.050781 586.183594 C 328.152344 583.21875 327.324219 580.234375 326.570312 577.230469 C 325.820312 574.226562 325.140625 571.203125 324.535156 568.164062 C 323.933594 565.125 323.402344 562.074219 322.949219 559.011719 C 322.492188 555.945312 322.113281 552.871094 321.8125 549.789062 C 321.507812 546.707031 321.277344 543.617188 321.128906 540.523438 C 320.976562 537.429688 320.898438 534.332031 320.898438 531.234375 C 320.898438 528.136719 320.976562 525.039062 321.128906 521.945312 C 321.277344 518.851562 321.507812 515.761719 321.8125 512.679688 C 322.113281 509.597656 322.492188 506.523438 322.949219 503.457031 C 323.402344 500.394531 323.933594 497.339844 324.535156 494.304688 C 325.140625 491.265625 325.820312 488.242188 326.570312 485.238281 C 327.324219 482.230469 328.152344 479.246094 329.050781 476.28125 C 329.949219 473.316406 330.921875 470.378906 331.964844 467.460938 C 333.007812 464.542969 334.125 461.652344 335.308594 458.792969 C 336.496094 455.929688 337.75 453.097656 339.074219 450.296875 C 340.398438 447.496094 341.792969 444.730469 343.25 441.996094 C 344.710938 439.265625 346.238281 436.570312 347.832031 433.914062 C 349.425781 431.257812 351.082031 428.640625 352.800781 426.0625 C 354.523438 423.488281 356.304688 420.957031 358.152344 418.46875 C 359.996094 415.980469 361.902344 413.539062 363.867188 411.140625 C 365.832031 408.746094 367.855469 406.402344 369.9375 404.105469 C 372.019531 401.8125 374.152344 399.566406 376.34375 397.378906 C 378.535156 395.1875 380.777344 393.050781 383.074219 390.972656 C 385.367188 388.890625 387.714844 386.867188 390.109375 384.902344 C 392.503906 382.9375 394.945312 381.03125 397.433594 379.183594 C 399.921875 377.339844 402.453125 375.558594 405.03125 373.835938 C 407.605469 372.113281 410.222656 370.457031 412.878906 368.863281 C 415.539062 367.273438 418.230469 365.746094 420.964844 364.285156 C 423.695312 362.824219 426.464844 361.433594 429.261719 360.105469 C 432.0625 358.78125 434.894531 357.527344 437.757812 356.34375 C 440.621094 355.15625 443.507812 354.042969 446.425781 353 C 449.34375 351.953125 452.285156 350.984375 455.25 350.082031 C 458.214844 349.183594 461.199219 348.359375 464.203125 347.605469 C 467.210938 346.851562 470.230469 346.175781 473.269531 345.570312 C 476.308594 344.964844 479.359375 344.4375 482.425781 343.980469 C 485.488281 343.527344 488.5625 343.148438 491.644531 342.84375 C 494.730469 342.539062 497.816406 342.3125 500.910156 342.160156 C 504.007812 342.007812 507.101562 341.933594 510.199219 341.933594 C 513.296875 341.933594 516.394531 342.007812 519.488281 342.160156 C 522.582031 342.3125 525.671875 342.539062 528.753906 342.84375 C 531.839844 343.148438 534.910156 343.527344 537.976562 343.980469 C 541.042969 344.4375 544.09375 344.964844 547.132812 345.570312 C 550.167969 346.175781 553.191406 346.851562 556.195312 347.605469 C 559.203125 348.359375 562.1875 349.183594 565.152344 350.082031 C 568.117188 350.984375 571.058594 351.953125 573.972656 353 C 576.890625 354.042969 579.78125 355.15625 582.644531 356.34375 C 585.503906 357.527344 588.335938 358.78125 591.136719 360.105469 C 593.9375 361.433594 596.703125 362.824219 599.4375 364.285156 C 602.167969 365.746094 604.863281 367.273438 607.519531 368.863281 C 610.179688 370.457031 612.792969 372.113281 615.371094 373.835938 C 617.945312 375.558594 620.480469 377.339844 622.96875 379.183594 C 625.457031 381.03125 627.898438 382.9375 630.292969 384.902344 C 632.6875 386.867188 635.03125 388.890625 637.328125 390.972656 C 639.621094 393.050781 641.867188 395.1875 644.054688 397.378906 C 646.246094 399.566406 648.382812 401.8125 650.464844 404.105469 C 652.542969 406.402344 654.566406 408.746094 656.53125 411.140625 C 658.496094 413.539062 660.402344 415.980469 662.25 418.46875 C 664.09375 420.957031 665.878906 423.488281 667.597656 426.0625 C 669.320312 428.640625 670.976562 431.257812 672.570312 433.914062 C 674.164062 436.570312 675.6875 439.265625 677.148438 441.996094 C 678.609375 444.730469 680.003906 447.496094 681.328125 450.296875 C 682.652344 453.097656 683.90625 455.929688 685.09375 458.792969 C 686.277344 461.652344 687.390625 464.542969 688.4375 467.460938 C 689.480469 470.378906 690.449219 473.316406 691.351562 476.28125 C 692.25 479.246094 693.074219 482.230469 693.828125 485.238281 C 694.582031 488.242188 695.261719 491.265625 695.863281 494.304688 C 696.46875 497.339844 697 500.394531 697.453125 503.457031 C 697.90625 506.523438 698.285156 509.597656 698.589844 512.679688 C 698.894531 515.761719 699.121094 518.851562 699.273438 521.945312 C 699.425781 525.039062 699.5 528.136719 699.5 531.234375 Z M 699.5 531.234375 " fill-opacity="1" fill-rule="nonzero"/><g clip-path="url(#ed6288712a)"><path fill="#1edfcd" d="M 548.496094 330.90625 L 548.496094 193.199219 C 548.496094 189.257812 546.675781 185.617188 544.097656 182.734375 L 389.710938 20.617188 C 386.832031 17.585938 382.734375 15.914062 378.640625 15.914062 L 133.867188 15.914062 C 88.675781 15.914062 52.582031 52.765625 52.582031 97.960938 L 52.582031 560.8125 C 52.582031 606.007812 88.675781 642.253906 133.867188 642.253906 L 327.078125 642.253906 C 363.625 702.917969 430.054688 743.558594 505.726562 743.558594 C 620.683594 743.558594 714.558594 650.136719 714.558594 535.035156 C 714.714844 434.484375 642.519531 350.46875 548.496094 330.90625 Z M 393.808594 69.148438 L 497.390625 178.183594 L 430.203125 178.183594 C 410.1875 178.183594 393.808594 161.65625 393.808594 141.636719 Z M 133.867188 611.921875 C 105.507812 611.921875 82.914062 589.171875 82.914062 560.8125 L 82.914062 97.960938 C 82.914062 69.445312 105.507812 46.246094 133.867188 46.246094 L 363.476562 46.246094 L 363.476562 141.636719 C 363.476562 178.488281 393.351562 208.515625 430.203125 208.515625 L 518.164062 208.515625 L 518.164062 326.957031 C 513.613281 326.808594 509.972656 326.351562 506.03125 326.351562 C 453.105469 326.351562 404.421875 346.675781 367.722656 378.527344 L 175.117188 378.527344 C 166.773438 378.527344 159.953125 385.347656 159.953125 393.6875 C 159.953125 402.03125 166.773438 408.855469 175.117188 408.855469 L 339.515625 408.855469 C 328.746094 424.019531 319.796875 439.1875 312.824219 455.867188 L 175.117188 455.867188 C 166.773438 455.867188 159.953125 462.691406 159.953125 471.035156 C 159.953125 479.375 166.773438 486.203125 175.117188 486.203125 L 302.964844 486.203125 C 299.171875 501.371094 297.203125 518.203125 297.203125 535.035156 C 297.203125 562.328125 302.507812 589.328125 312.0625 612.078125 L 133.867188 612.078125 Z M 505.882812 713.378906 C 407.609375 713.378906 327.683594 633.457031 327.683594 535.183594 C 327.683594 436.910156 407.453125 356.984375 505.882812 356.984375 C 604.304688 356.984375 684.074219 436.910156 684.074219 535.183594 C 684.074219 633.457031 604.15625 713.378906 505.882812 713.378906 Z M 505.882812 713.378906 " fill-opacity="1" fill-rule="nonzero"/></g><path fill="#1edfcd" d="M 175.121094 332.875 L 328.746094 332.875 C 337.089844 332.875 343.914062 326.046875 343.914062 317.710938 C 343.914062 309.367188 337.089844 302.542969 328.746094 302.542969 L 175.121094 302.542969 C 166.777344 302.542969 159.953125 309.367188 159.953125 317.710938 C 159.953125 326.046875 166.777344 332.875 175.121094 332.875 Z M 175.121094 332.875 " fill-opacity="1" fill-rule="nonzero"/><path fill="#1edfcd" d="M 500.875 441.613281 C 502.089844 441.910156 503.300781 442.066406 504.515625 442.066406 C 506.03125 442.066406 507.398438 441.910156 508.761719 441.457031 C 528.78125 443.128906 544.402344 459.808594 544.402344 480.132812 C 544.402344 488.472656 551.226562 495.296875 559.566406 495.296875 C 567.910156 495.296875 574.730469 488.472656 574.730469 480.132812 C 574.730469 446.769531 551.078125 418.863281 519.683594 412.339844 L 519.683594 402.636719 C 519.683594 394.292969 512.855469 387.46875 504.515625 387.46875 C 496.171875 387.46875 489.347656 394.292969 489.347656 402.636719 L 489.347656 412.949219 C 459.015625 420.230469 436.421875 447.679688 436.421875 480.132812 C 436.421875 518.351562 467.507812 549.289062 505.574219 549.289062 C 526.960938 549.289062 544.402344 566.726562 544.402344 588.109375 C 544.402344 609.496094 527.109375 627.085938 505.574219 627.085938 C 484.191406 627.085938 466.753906 609.644531 466.753906 588.261719 C 466.753906 579.921875 459.925781 573.09375 451.589844 573.09375 C 443.246094 573.09375 436.421875 579.921875 436.421875 588.261719 C 436.421875 620.871094 459.015625 648.167969 489.347656 655.445312 L 489.347656 671.066406 C 489.347656 679.410156 496.171875 686.234375 504.515625 686.234375 C 512.855469 686.234375 519.683594 679.410156 519.683594 671.066406 L 519.683594 655.898438 C 551.078125 649.375 574.730469 621.476562 574.730469 588.109375 C 574.730469 549.894531 543.640625 518.957031 505.574219 518.957031 C 484.191406 518.957031 466.753906 501.511719 466.753906 480.132812 C 466.753906 460.414062 481.617188 443.890625 500.875 441.613281 Z M 500.875 441.613281 " fill-opacity="1" fill-rule="nonzero"/></svg>