<svg xmlns="http://www.w3.org/2000/svg" xmlns:xlink="http://www.w3.org/1999/xlink" width="1024" zoomAndPan="magnify" viewBox="0 0 768 767.999994" height="1024" preserveAspectRatio="xMidYMid meet" version="1.0"><defs><clipPath id="d6b854d93a"><path d="M 47.238281 37.691406 L 740.425781 37.691406 L 740.425781 730.878906 L 47.238281 730.878906 Z M 47.238281 37.691406 " clip-rule="nonzero"/></clipPath></defs><g clip-path="url(#d6b854d93a)"><path fill="#1edfcd" d="M 336.082031 730.863281 L 47.253906 730.863281 L 47.253906 673.097656 L 336.082031 673.097656 Z M 278.316406 557.566406 L 47.253906 557.566406 L 47.253906 615.332031 L 278.316406 615.332031 Z M 220.550781 442.035156 L 47.253906 442.035156 L 47.253906 499.800781 L 220.550781 499.800781 Z M 393.847656 37.675781 C 301.953125 37.777344 213.855469 74.324219 148.878906 139.300781 C 83.898438 204.277344 47.351562 292.378906 47.253906 384.269531 L 105.019531 384.269531 C 105.019531 327.144531 121.957031 271.304688 153.695312 223.804688 C 185.429688 176.308594 230.539062 139.289062 283.316406 117.425781 C 336.09375 95.566406 394.167969 89.847656 450.195312 100.992188 C 506.222656 112.136719 557.6875 139.644531 598.078125 180.039062 C 638.472656 220.429688 665.980469 271.894531 677.125 327.921875 C 688.269531 383.949219 682.546875 442.023438 660.691406 494.800781 C 638.828125 547.574219 601.808594 592.683594 554.3125 624.421875 C 506.8125 656.160156 450.972656 673.097656 393.847656 673.097656 L 393.847656 730.863281 C 485.769531 730.863281 573.925781 694.347656 638.925781 629.347656 C 703.925781 564.351562 740.441406 476.195312 740.441406 384.269531 C 740.441406 292.347656 703.925781 204.191406 638.925781 139.191406 C 573.925781 74.191406 485.769531 37.675781 393.847656 37.675781 Z M 364.964844 239.855469 L 364.964844 396.226562 L 460.074219 491.339844 L 500.914062 450.5 L 422.730469 372.3125 L 422.730469 239.855469 Z M 364.964844 239.855469 " fill-opacity="1" fill-rule="nonzero"/></g></svg>