<svg xmlns="http://www.w3.org/2000/svg" xmlns:xlink="http://www.w3.org/1999/xlink" width="1024" zoomAndPan="magnify" viewBox="0 0 768 767.999994" height="1024" preserveAspectRatio="xMidYMid meet" version="1.0"><defs><clipPath id="c1b95eb9bd"><path d="M 35.722656 28.023438 L 738.046875 28.023438 L 738.046875 730.347656 L 35.722656 730.347656 Z M 35.722656 28.023438 " clip-rule="nonzero"/></clipPath><clipPath id="34fac33f9f"><path d="M 710 328 L 738.046875 328 L 738.046875 356 L 710 356 Z M 710 328 " clip-rule="nonzero"/></clipPath></defs><path fill="#bce3c9" d="M 175.496094 195.839844 L 175.496094 383.996094 C 211.09375 372.128906 298.5625 369.757812 363.65625 455.191406 C 378.910156 487.398438 403.320312 561.984375 378.910156 602.667969 L 450.105469 643.347656 L 450.105469 338.226562 Z M 175.496094 195.839844 " fill-opacity="1" fill-rule="nonzero"/><g clip-path="url(#c1b95eb9bd)"><path fill="#1edfcd" d="M 730.9375 179.921875 L 457.402344 29.722656 C 453.292969 27.464844 448.3125 27.464844 444.199219 29.722656 L 341.101562 86.332031 C 338.925781 86.90625 336.894531 88 335.210938 89.570312 L 170.671875 179.921875 C 166.285156 182.328125 163.558594 186.9375 163.558594 191.945312 L 163.558594 373.605469 C 135.800781 382.285156 110.363281 397.59375 89.214844 418.75 C 34.089844 473.871094 20.035156 557.941406 54.242188 627.949219 C 57.5625 634.753906 65.777344 637.578125 72.582031 634.25 C 79.394531 630.921875 82.210938 622.707031 78.890625 615.902344 C 49.828125 556.421875 61.769531 484.988281 108.613281 438.144531 C 137.90625 408.851562 176.851562 392.71875 218.277344 392.71875 C 259.703125 392.71875 298.648438 408.851562 327.941406 438.144531 C 357.230469 467.433594 373.363281 506.378906 373.363281 547.804688 C 373.363281 589.230469 357.230469 628.175781 327.933594 657.46875 C 281.09375 704.308594 209.660156 716.253906 150.179688 687.191406 C 143.371094 683.863281 135.15625 686.6875 131.835938 693.492188 C 128.507812 700.304688 131.328125 708.515625 138.136719 711.839844 C 163.636719 724.304688 190.996094 730.359375 218.160156 730.359375 C 265.542969 730.351562 312.292969 711.910156 347.339844 676.867188 C 363.40625 660.796875 376.105469 642.253906 385.09375 622.101562 L 444.199219 654.558594 C 446.257812 655.6875 448.53125 656.25 450.800781 656.25 C 453.074219 656.25 455.351562 655.6875 457.402344 654.558594 L 730.9375 504.363281 C 735.324219 501.953125 738.050781 497.34375 738.050781 492.339844 L 738.050781 397.007812 C 738.050781 389.433594 731.910156 383.292969 724.335938 383.292969 C 716.757812 383.292969 710.617188 389.433594 710.617188 397.007812 L 710.617188 484.222656 L 464.5625 619.332031 L 464.5625 350.238281 L 545.769531 305.644531 L 545.769531 376.332031 C 545.769531 381.1875 548.328125 385.675781 552.503906 388.140625 C 554.65625 389.414062 557.070312 390.046875 559.484375 390.046875 C 561.757812 390.046875 564.035156 389.488281 566.097656 388.351562 L 624.710938 356.085938 C 629.097656 353.675781 631.8125 349.074219 631.8125 344.074219 L 631.8125 258.394531 L 710.617188 215.125 L 710.617188 287.277344 C 710.617188 294.851562 716.757812 300.996094 724.335938 300.996094 C 731.910156 300.996094 738.050781 294.851562 738.050781 287.277344 L 738.050781 191.945312 C 738.050781 186.941406 735.324219 182.328125 730.9375 179.921875 Z M 450.800781 57.394531 L 695.835938 191.945312 L 618.539062 234.390625 L 373.507812 99.835938 Z M 450.800781 326.492188 L 205.769531 191.945312 L 285.898438 147.945312 L 530.9375 282.492188 Z M 559.433594 266.84375 L 314.398438 132.296875 L 345.007812 115.488281 L 590.042969 250.035156 Z M 347.339844 418.75 C 312.863281 384.273438 267.027344 365.289062 218.277344 365.289062 C 209.054688 365.289062 199.945312 365.96875 190.992188 367.304688 L 190.992188 215.125 L 437.132812 350.285156 L 437.132812 619.378906 L 394.410156 595.921875 C 398.617188 580.4375 400.792969 564.285156 400.792969 547.804688 C 400.792969 499.054688 381.808594 453.21875 347.339844 418.75 Z M 604.382812 335.96875 L 573.203125 353.128906 L 573.203125 290.582031 L 604.382812 273.460938 Z M 604.382812 335.96875 " fill-opacity="1" fill-rule="nonzero"/></g><g clip-path="url(#34fac33f9f)"><path fill="#1edfcd" d="M 724.332031 328.351562 C 720.726562 328.351562 717.183594 329.820312 714.632812 332.371094 C 712.082031 334.921875 710.613281 338.457031 710.613281 342.070312 C 710.613281 345.675781 712.082031 349.210938 714.632812 351.761719 C 717.183594 354.316406 720.726562 355.78125 724.332031 355.78125 C 727.9375 355.78125 731.476562 354.316406 734.027344 351.761719 C 736.578125 349.210938 738.046875 345.675781 738.046875 342.070312 C 738.046875 338.457031 736.578125 334.921875 734.027344 332.371094 C 731.476562 329.820312 727.9375 328.351562 724.332031 328.351562 Z M 724.332031 328.351562 " fill-opacity="1" fill-rule="nonzero"/></g><path fill="#1edfcd" d="M 172.148438 561.515625 C 175.65625 561.515625 179.171875 560.175781 181.847656 557.5 C 187.203125 552.140625 187.203125 543.457031 181.847656 538.097656 L 172.347656 528.59375 L 253.417969 528.59375 C 273.082031 528.59375 289.082031 544.59375 289.082031 564.257812 C 289.082031 583.921875 273.082031 599.921875 253.417969 599.921875 L 205.378906 599.921875 C 197.804688 599.921875 191.664062 606.0625 191.664062 613.640625 C 191.664062 621.210938 197.804688 627.351562 205.378906 627.351562 L 253.417969 627.351562 C 288.210938 627.351562 316.519531 599.050781 316.519531 564.257812 C 316.519531 529.464844 288.210938 501.164062 253.417969 501.164062 L 172.347656 501.164062 L 181.847656 491.65625 C 187.203125 486.300781 187.203125 477.613281 181.847656 472.253906 C 176.492188 466.902344 167.808594 466.902344 162.449219 472.253906 L 129.527344 505.175781 C 124.175781 510.535156 124.175781 519.222656 129.527344 524.578125 L 162.449219 557.496094 C 165.128906 560.175781 168.636719 561.515625 172.148438 561.515625 Z M 172.148438 561.515625 " fill-opacity="1" fill-rule="nonzero"/><path fill="#1edfcd" d="M 98.921875 680.898438 C 95.019531 680.898438 91.144531 679.238281 88.441406 676.015625 L 88.414062 675.984375 C 83.535156 670.1875 84.285156 661.539062 90.085938 656.664062 C 95.882812 651.78125 104.535156 652.53125 109.414062 658.328125 C 114.28125 664.132812 113.546875 672.796875 107.75 677.671875 C 105.171875 679.835938 102.039062 680.898438 98.921875 680.898438 Z M 98.921875 680.898438 " fill-opacity="1" fill-rule="nonzero"/></svg>