<svg xmlns="http://www.w3.org/2000/svg" xmlns:xlink="http://www.w3.org/1999/xlink" width="1024" zoomAndPan="magnify" viewBox="0 0 768 767.999994" height="1024" preserveAspectRatio="xMidYMid meet" version="1.0"><defs><clipPath id="70eb2c2db8"><path d="M 206 365 L 565 365 L 565 733.410156 L 206 733.410156 Z M 206 365 " clip-rule="nonzero"/></clipPath><clipPath id="3d83ccc324"><path d="M 32.097656 26.292969 L 209 26.292969 L 209 203 L 32.097656 203 Z M 32.097656 26.292969 " clip-rule="nonzero"/></clipPath><clipPath id="c1295e5370"><path d="M 297 26.292969 L 474 26.292969 L 474 203 L 297 203 Z M 297 26.292969 " clip-rule="nonzero"/></clipPath><clipPath id="fb889a55fe"><path d="M 552 31 L 739.214844 31 L 739.214844 198 L 552 198 Z M 552 31 " clip-rule="nonzero"/></clipPath></defs><g clip-path="url(#70eb2c2db8)"><path fill="#1edfcd" d="M 551.125 693.363281 C 543.960938 693.363281 538.074219 698.808594 537.378906 705.789062 L 433.449219 705.789062 L 417.050781 607.054688 L 435.277344 588.832031 C 437.867188 586.242188 439.320312 582.730469 439.320312 579.066406 C 439.320312 575.402344 437.867188 571.890625 435.277344 569.300781 L 419.152344 553.175781 L 446.707031 553.175781 C 476.945312 553.175781 505.085938 568.183594 521.976562 593.324219 C 526.230469 599.65625 534.8125 601.339844 541.140625 597.089844 C 547.472656 592.835938 549.15625 584.253906 544.902344 577.921875 C 523.046875 545.386719 486.738281 525.875 447.632812 525.566406 C 461.011719 510.75 469.175781 491.136719 469.175781 469.648438 L 469.175781 449.394531 C 469.175781 403.335938 431.707031 365.867188 385.648438 365.867188 C 339.589844 365.867188 302.121094 403.335938 302.121094 449.394531 L 302.121094 469.648438 C 302.121094 491.140625 310.285156 510.757812 323.667969 525.578125 C 258.902344 526.078125 206.367188 578.898438 206.367188 643.78125 L 206.367188 719.597656 C 206.367188 727.226562 212.550781 733.410156 220.175781 733.410156 L 551.121094 733.410156 C 558.75 733.410156 564.929688 727.226562 564.929688 719.597656 L 564.929688 707.171875 C 564.933594 699.546875 558.75 693.363281 551.125 693.363281 Z M 385.808594 599.234375 L 365.640625 579.066406 L 385.808594 558.898438 L 405.980469 579.066406 Z M 378.660156 630.570312 C 380.851562 631.898438 383.328125 632.578125 385.808594 632.578125 C 388.289062 632.578125 390.765625 631.898438 392.957031 630.570312 L 405.449219 705.789062 L 366.167969 705.789062 Z M 329.746094 449.394531 C 329.746094 418.570312 354.824219 393.488281 385.652344 393.488281 C 416.476562 393.488281 441.554688 418.566406 441.554688 449.394531 L 441.554688 469.648438 C 441.554688 500.472656 416.476562 525.554688 385.652344 525.554688 C 354.824219 525.554688 329.746094 500.476562 329.746094 469.648438 Z M 233.992188 643.78125 C 233.992188 593.820312 274.636719 553.175781 324.597656 553.175781 L 352.464844 553.175781 L 336.339844 569.300781 C 333.75 571.890625 332.296875 575.402344 332.296875 579.066406 C 332.296875 582.730469 333.75 586.242188 336.339844 588.832031 L 354.566406 607.054688 L 338.167969 705.789062 L 233.988281 705.789062 L 233.988281 643.78125 Z M 233.992188 643.78125 " fill-opacity="1" fill-rule="nonzero"/></g><path fill="#bce3c9" d="M 312.453125 41.621094 C 316.542969 41.621094 409.546875 45.027344 455.535156 46.730469 L 455.535156 194.921875 L 312.453125 189.8125 Z M 312.453125 41.621094 " fill-opacity="1" fill-rule="nonzero"/><path fill="#bce3c9" d="M 639.496094 46.730469 L 567.957031 179.59375 L 721.257812 179.59375 L 649.71875 51.84375 Z M 639.496094 46.730469 " fill-opacity="1" fill-rule="nonzero"/><path stroke-linecap="round" transform="matrix(10.220088, 0, 0, 10.220088, 26.291892, 26.291909)" fill="none" stroke-linejoin="round" d="M 27.99988 1.499907 C 28.400057 1.499907 37.500165 1.833197 41.999958 1.999842 L 41.999958 16.499855 L 27.99988 15.99992 Z M 27.99988 1.499907 " stroke="#000000" stroke-width="1" stroke-opacity="1" stroke-miterlimit="4"/><path stroke-linecap="round" transform="matrix(10.220088, 0, 0, 10.220088, 26.291892, 26.291909)" fill="none" stroke-linejoin="round" d="M 59.999895 1.999842 L 53.000047 15.000051 L 67.999994 15.000051 L 61.000146 2.500159 Z M 59.999895 1.999842 " stroke="#000000" stroke-width="1" stroke-opacity="1" stroke-miterlimit="4"/><g clip-path="url(#3d83ccc324)"><path fill="#1edfcd" d="M 208.714844 114.613281 C 208.714844 65.917969 169.097656 26.300781 120.402344 26.300781 C 71.710938 26.300781 32.09375 65.917969 32.09375 114.613281 C 32.09375 163.304688 71.710938 202.921875 120.402344 202.921875 C 169.097656 202.921875 208.714844 163.304688 208.714844 114.613281 Z M 59.714844 114.613281 C 59.714844 81.148438 86.9375 53.925781 120.402344 53.925781 C 153.867188 53.925781 181.089844 81.148438 181.089844 114.613281 C 181.089844 148.074219 153.867188 175.300781 120.402344 175.300781 C 86.9375 175.300781 59.714844 148.078125 59.714844 114.613281 Z M 59.714844 114.613281 " fill-opacity="1" fill-rule="nonzero"/></g><g clip-path="url(#c1295e5370)"><path fill="#1edfcd" d="M 311.15625 202.914062 L 460.152344 202.914062 C 467.78125 202.914062 473.964844 196.730469 473.964844 189.101562 L 473.964844 40.105469 C 473.964844 32.476562 467.78125 26.292969 460.152344 26.292969 L 311.15625 26.292969 C 303.527344 26.292969 297.34375 32.476562 297.34375 40.105469 L 297.34375 189.101562 C 297.34375 196.730469 303.527344 202.914062 311.15625 202.914062 Z M 324.964844 53.914062 L 446.34375 53.914062 L 446.34375 175.292969 L 324.964844 175.292969 Z M 324.964844 53.914062 " fill-opacity="1" fill-rule="nonzero"/></g><g clip-path="url(#fb889a55fe)"><path fill="#1edfcd" d="M 737.363281 176.710938 L 657.671875 38.683594 C 655.207031 34.410156 650.644531 31.777344 645.710938 31.777344 C 640.777344 31.777344 636.21875 34.410156 633.75 38.683594 L 554.058594 176.710938 C 551.59375 180.984375 551.59375 186.25 554.058594 190.523438 C 556.527344 194.792969 561.085938 197.425781 566.019531 197.425781 L 725.402344 197.425781 C 730.335938 197.425781 734.894531 194.792969 737.363281 190.523438 C 739.828125 186.25 739.828125 180.984375 737.363281 176.710938 Z M 589.941406 169.804688 L 645.710938 73.210938 L 701.480469 169.804688 Z M 589.941406 169.804688 " fill-opacity="1" fill-rule="nonzero"/></g><path fill="#1edfcd" d="M 385.652344 338.753906 C 393.28125 338.753906 399.464844 332.570312 399.464844 324.941406 L 399.464844 285.535156 L 400.023438 286.316406 C 402.71875 290.085938 406.960938 292.09375 411.265625 292.09375 C 414.046875 292.09375 416.859375 291.253906 419.292969 289.511719 C 425.496094 285.074219 426.925781 276.445312 422.488281 270.242188 L 396.886719 234.46875 C 394.292969 230.84375 390.109375 228.695312 385.65625 228.695312 C 381.199219 228.695312 377.015625 230.84375 374.421875 234.46875 L 348.820312 270.242188 C 344.382812 276.445312 345.8125 285.074219 352.015625 289.511719 C 358.21875 293.949219 366.84375 292.523438 371.285156 286.320312 L 371.84375 285.535156 L 371.84375 324.941406 C 371.84375 332.570312 378.027344 338.753906 385.652344 338.753906 Z M 385.652344 338.753906 " fill-opacity="1" fill-rule="nonzero"/><path fill="#1edfcd" d="M 271.941406 450.609375 C 271.941406 442.980469 265.757812 436.796875 258.132812 436.796875 L 134.292969 436.796875 L 134.292969 285.535156 L 134.851562 286.316406 C 137.550781 290.085938 141.789062 292.09375 146.097656 292.09375 C 148.875 292.09375 151.6875 291.253906 154.121094 289.511719 C 160.324219 285.074219 161.753906 276.445312 157.316406 270.242188 L 131.714844 234.46875 C 129.121094 230.84375 124.9375 228.695312 120.484375 228.695312 C 116.027344 228.695312 111.847656 230.84375 109.253906 234.46875 L 83.652344 270.242188 C 79.210938 276.445312 80.640625 285.074219 86.84375 289.511719 C 93.046875 293.949219 101.671875 292.523438 106.113281 286.320312 L 106.671875 285.535156 L 106.671875 450.609375 C 106.671875 458.234375 112.855469 464.421875 120.480469 464.421875 L 258.132812 464.421875 C 265.757812 464.421875 271.941406 458.238281 271.941406 450.609375 Z M 271.941406 450.609375 " fill-opacity="1" fill-rule="nonzero"/><path fill="#1edfcd" d="M 662.054688 234.46875 C 659.460938 230.84375 655.277344 228.695312 650.824219 228.695312 C 646.367188 228.695312 642.1875 230.84375 639.59375 234.46875 L 613.992188 270.242188 C 609.550781 276.445312 610.980469 285.070312 617.183594 289.511719 C 623.386719 293.949219 632.015625 292.519531 636.453125 286.316406 L 637.011719 285.535156 L 637.011719 436.796875 L 513.175781 436.796875 C 505.546875 436.796875 499.363281 442.984375 499.363281 450.609375 C 499.363281 458.234375 505.546875 464.421875 513.175781 464.421875 L 650.824219 464.421875 C 658.449219 464.421875 664.632812 458.234375 664.632812 450.609375 L 664.632812 285.535156 L 665.195312 286.316406 C 667.890625 290.085938 672.132812 292.09375 676.4375 292.09375 C 679.21875 292.09375 682.027344 291.253906 684.464844 289.511719 C 690.667969 285.074219 692.097656 276.445312 687.65625 270.246094 Z M 662.054688 234.46875 " fill-opacity="1" fill-rule="nonzero"/><path fill="#1edfcd" d="M 551.121094 658.835938 C 558.746094 658.835938 564.929688 652.652344 564.929688 645.027344 C 564.929688 637.398438 558.746094 631.214844 551.121094 631.214844 C 543.492188 631.214844 537.308594 637.398438 537.308594 645.027344 C 537.308594 652.652344 543.492188 658.835938 551.121094 658.835938 Z M 551.121094 658.835938 " fill-opacity="1" fill-rule="nonzero"/></svg>