<svg xmlns="http://www.w3.org/2000/svg" xmlns:xlink="http://www.w3.org/1999/xlink" width="1024" zoomAndPan="magnify" viewBox="0 0 768 767.999994" height="1024" preserveAspectRatio="xMidYMid meet" version="1.0"><defs><clipPath id="da901deca9"><path d="M 15.21875 80 L 746 80 L 746 691 L 15.21875 691 Z M 15.21875 80 " clip-rule="nonzero"/></clipPath></defs><g clip-path="url(#da901deca9)"><path fill="#1edfcd" d="M 655.007812 398.394531 L 655.007812 355.007812 C 655.007812 282.289062 626.121094 212.546875 574.703125 161.128906 C 523.28125 109.707031 453.539062 80.820312 380.820312 80.820312 C 308.097656 80.820312 238.359375 109.707031 186.9375 161.128906 C 135.515625 212.546875 106.628906 282.289062 106.628906 355.007812 L 106.628906 398.394531 C 74.675781 412.460938 48.523438 437.082031 32.554688 468.128906 C 16.585938 499.175781 11.765625 534.769531 18.90625 568.945312 C 26.042969 603.121094 44.707031 633.808594 71.765625 655.871094 C 98.828125 677.929688 132.648438 690.027344 167.558594 690.132812 L 228.492188 690.132812 L 228.492188 385.476562 L 167.558594 385.476562 L 167.558594 355.007812 C 167.558594 298.449219 190.027344 244.207031 230.023438 204.214844 C 270.015625 164.21875 324.257812 141.75 380.820312 141.75 C 437.378906 141.75 491.621094 164.21875 531.617188 204.214844 C 571.609375 244.207031 594.078125 298.449219 594.078125 355.007812 L 594.078125 385.476562 L 533.148438 385.476562 L 533.148438 629.203125 L 411.285156 629.203125 L 411.285156 690.132812 L 594.078125 690.132812 C 628.992188 690.027344 662.808594 677.929688 689.871094 655.871094 C 716.933594 633.808594 735.597656 603.121094 742.734375 568.945312 C 749.871094 534.769531 745.050781 499.175781 729.078125 468.128906 C 713.113281 437.082031 686.964844 412.460938 655.007812 398.394531 Z M 167.558594 629.203125 C 143.320312 629.203125 120.074219 619.570312 102.933594 602.429688 C 85.792969 585.289062 76.164062 562.042969 76.164062 537.804688 C 76.164062 513.5625 85.792969 490.316406 102.933594 473.175781 C 120.074219 456.035156 143.320312 446.40625 167.558594 446.40625 Z M 594.078125 629.203125 L 594.078125 446.40625 C 618.316406 446.40625 641.5625 456.035156 658.703125 473.175781 C 675.847656 490.316406 685.472656 513.5625 685.472656 537.804688 C 685.472656 562.042969 675.847656 585.289062 658.703125 602.429688 C 641.5625 619.570312 618.316406 629.203125 594.078125 629.203125 Z M 594.078125 629.203125 " fill-opacity="1" fill-rule="nonzero"/></g></svg>