<svg xmlns="http://www.w3.org/2000/svg" xmlns:xlink="http://www.w3.org/1999/xlink" width="1024" zoomAndPan="magnify" viewBox="0 0 768 767.999994" height="1024" preserveAspectRatio="xMidYMid meet" version="1.0"><defs><clipPath id="339db6f76d"><path d="M 23.179688 60 L 736.457031 60 L 736.457031 699 L 23.179688 699 Z M 23.179688 60 " clip-rule="nonzero"/></clipPath></defs><path fill="#bce3c9" d="M 476.78125 74.722656 L 373.691406 74.722656 L 249.980469 198.433594 L 311.835938 234.515625 L 373.691406 172.660156 L 502.554688 301.527344 L 548.945312 358.226562 L 615.953125 368.535156 L 646.882812 311.835938 L 646.882812 115.960938 L 595.335938 74.722656 Z M 476.78125 74.722656 " fill-opacity="1" fill-rule="nonzero"/><g clip-path="url(#339db6f76d)"><path fill="#1edfcd" d="M 689.09375 171.507812 L 661.203125 171.507812 L 661.230469 121.648438 C 661.246094 88.175781 634.03125 60.929688 600.554688 60.914062 L 388.886719 60.792969 C 388.875 60.792969 388.871094 60.792969 388.859375 60.792969 C 376.808594 60.792969 365.480469 65.484375 356.957031 74.003906 L 40.957031 390.003906 C 29.492188 401.472656 23.179688 416.714844 23.179688 432.933594 C 23.179688 449.148438 29.492188 464.390625 40.957031 475.859375 L 246.03125 680.929688 C 257.867188 692.765625 273.414062 698.683594 288.957031 698.683594 C 304.503906 698.683594 320.050781 692.765625 331.886719 680.929688 L 530.84375 481.976562 C 536.285156 476.53125 536.285156 467.710938 530.84375 462.273438 C 525.402344 456.832031 516.578125 456.832031 511.136719 462.273438 L 312.183594 661.230469 C 299.378906 674.035156 278.539062 674.035156 265.734375 661.230469 L 60.664062 456.160156 C 54.457031 449.953125 51.039062 441.703125 51.039062 432.933594 C 51.039062 424.160156 54.457031 415.910156 60.664062 409.707031 L 376.65625 93.710938 C 379.917969 90.449219 384.25 88.65625 388.859375 88.65625 L 388.871094 88.65625 L 600.539062 88.773438 C 618.648438 88.78125 633.378906 103.527344 633.367188 121.636719 L 633.304688 238.378906 L 570.554688 238.378906 C 565.148438 238.378906 560.257812 236.167969 556.71875 232.609375 C 562.546875 230.113281 568.011719 226.503906 572.761719 221.753906 C 592.78125 201.726562 592.78125 169.152344 572.761719 149.132812 C 552.734375 129.105469 520.160156 129.105469 500.132812 149.132812 C 480.113281 169.152344 480.113281 201.726562 500.132812 221.753906 C 507.558594 229.175781 516.710938 233.839844 526.304688 235.761719 C 533.125 253.5625 550.378906 266.242188 570.554688 266.242188 L 633.289062 266.242188 L 633.25 333.023438 C 633.25 337.632812 631.453125 341.960938 628.195312 345.214844 L 589.949219 383.464844 C 584.503906 388.90625 584.503906 397.726562 589.949219 403.171875 C 595.382812 408.605469 604.207031 408.605469 609.648438 403.171875 L 647.898438 364.917969 C 656.410156 356.402344 661.105469 345.082031 661.113281 333.039062 L 661.148438 266.242188 L 689.09375 266.242188 C 715.210938 266.242188 736.460938 244.996094 736.460938 218.875 C 736.460938 192.757812 715.210938 171.507812 689.09375 171.507812 Z M 519.839844 168.832031 C 524.421875 164.25 530.433594 161.964844 536.453125 161.964844 C 542.46875 161.964844 548.480469 164.253906 553.0625 168.832031 C 554.511719 170.285156 555.707031 171.890625 556.699219 173.582031 C 541.40625 178.265625 529.390625 190.507812 525 205.929688 C 523.152344 204.898438 521.40625 203.621094 519.839844 202.054688 C 510.679688 192.890625 510.679688 177.988281 519.839844 168.832031 Z M 689.09375 238.378906 L 661.167969 238.378906 L 661.1875 199.371094 L 689.09375 199.371094 C 699.847656 199.371094 708.597656 208.121094 708.597656 218.875 C 708.597656 229.628906 699.847656 238.378906 689.09375 238.378906 Z M 689.09375 238.378906 " fill-opacity="1" fill-rule="nonzero"/></g><path fill="#1edfcd" d="M 248.046875 412.285156 C 249.761719 418.449219 255.363281 422.484375 261.457031 422.484375 C 262.699219 422.484375 263.957031 422.320312 265.203125 421.972656 L 408.214844 382.164062 C 415.628906 380.101562 419.964844 372.417969 417.902344 365.007812 C 415.839844 357.601562 408.160156 353.261719 400.742188 355.324219 L 257.730469 395.128906 C 250.324219 397.195312 245.988281 404.875 248.046875 412.285156 Z M 248.046875 412.285156 " fill-opacity="1" fill-rule="nonzero"/><path fill="#1edfcd" d="M 311 430.667969 C 303.238281 438.429688 298.96875 448.742188 298.96875 459.71875 C 298.96875 470.6875 303.238281 481 311 488.761719 C 319.011719 496.765625 329.523438 500.769531 340.042969 500.769531 C 350.5625 500.769531 361.082031 496.765625 369.09375 488.761719 C 385.109375 472.746094 385.109375 446.683594 369.09375 430.667969 C 353.078125 414.652344 327.015625 414.652344 311 430.667969 Z M 349.386719 469.054688 C 344.234375 474.207031 335.855469 474.207031 330.699219 469.054688 C 328.203125 466.5625 326.832031 463.242188 326.832031 459.710938 C 326.832031 456.183594 328.207031 452.867188 330.699219 450.367188 C 333.28125 447.792969 336.664062 446.503906 340.042969 446.503906 C 343.429688 446.503906 346.8125 447.792969 349.386719 450.367188 C 354.542969 455.523438 354.542969 463.90625 349.386719 469.054688 Z M 349.386719 469.054688 " fill-opacity="1" fill-rule="nonzero"/><path fill="#1edfcd" d="M 375.992188 347.722656 C 392.007812 331.703125 392.007812 305.644531 375.992188 289.628906 C 368.234375 281.871094 357.914062 277.597656 346.945312 277.597656 C 335.972656 277.597656 325.65625 281.871094 317.902344 289.628906 C 301.886719 305.644531 301.886719 331.703125 317.902344 347.722656 C 325.910156 355.726562 336.425781 359.734375 346.945312 359.734375 C 357.464844 359.734375 367.984375 355.726562 375.992188 347.722656 Z M 337.601562 309.332031 C 340.097656 306.832031 343.417969 305.460938 346.945312 305.460938 C 350.476562 305.460938 353.796875 306.832031 356.289062 309.332031 C 361.441406 314.484375 361.441406 322.863281 356.289062 328.019531 C 351.140625 333.171875 342.753906 333.171875 337.601562 328.019531 C 332.453125 322.863281 332.453125 314.484375 337.601562 309.332031 Z M 337.601562 309.332031 " fill-opacity="1" fill-rule="nonzero"/><path fill="#1edfcd" d="M 161.738281 383.5 C 156.296875 378.054688 147.476562 378.054688 142.035156 383.5 L 102.449219 423.082031 C 99.835938 425.695312 98.367188 429.238281 98.367188 432.933594 C 98.367188 436.628906 99.835938 440.171875 102.449219 442.78125 L 279.109375 619.441406 C 281.824219 622.160156 285.394531 623.519531 288.960938 623.519531 C 292.523438 623.519531 296.089844 622.160156 298.808594 619.441406 L 562.9375 355.308594 C 568.378906 349.867188 568.378906 341.046875 562.9375 335.605469 L 386.28125 158.949219 C 383.671875 156.335938 380.128906 154.867188 376.433594 154.867188 C 372.738281 154.867188 369.195312 156.335938 366.582031 158.949219 L 220.84375 304.6875 C 215.402344 310.128906 215.402344 318.953125 220.84375 324.394531 C 226.28125 329.832031 235.101562 329.832031 240.542969 324.394531 L 376.433594 188.503906 L 533.386719 345.457031 L 288.960938 589.886719 L 132.003906 432.933594 L 161.738281 403.199219 C 167.175781 397.757812 167.179688 388.941406 161.738281 383.5 Z M 161.738281 383.5 " fill-opacity="1" fill-rule="nonzero"/><path fill="#1edfcd" d="M 560.398438 418.789062 C 556.730469 418.789062 553.136719 420.28125 550.546875 422.871094 C 547.957031 425.460938 546.464844 429.058594 546.464844 432.71875 C 546.464844 436.382812 547.957031 439.980469 550.546875 442.570312 C 553.136719 445.160156 556.730469 446.652344 560.398438 446.652344 C 564.058594 446.652344 567.652344 445.160156 570.246094 442.570312 C 572.835938 439.980469 574.328125 436.382812 574.328125 432.71875 C 574.328125 429.058594 572.835938 425.460938 570.246094 422.871094 C 567.652344 420.28125 564.058594 418.789062 560.398438 418.789062 Z M 560.398438 418.789062 " fill-opacity="1" fill-rule="nonzero"/><path fill="#1edfcd" d="M 201.132812 363.789062 C 203.738281 361.199219 205.21875 357.617188 205.21875 353.9375 C 205.21875 350.277344 203.738281 346.695312 201.132812 344.085938 C 198.542969 341.5 194.960938 340.007812 191.289062 340.007812 C 187.621094 340.007812 184.027344 341.5 181.4375 344.085938 C 178.84375 346.679688 177.359375 350.277344 177.359375 353.9375 C 177.359375 357.617188 178.84375 361.199219 181.4375 363.789062 C 184.039062 366.394531 187.621094 367.867188 191.289062 367.867188 C 194.960938 367.867188 198.542969 366.394531 201.132812 363.789062 Z M 201.132812 363.789062 " fill-opacity="1" fill-rule="nonzero"/></svg>