<svg xmlns="http://www.w3.org/2000/svg" xmlns:xlink="http://www.w3.org/1999/xlink" width="1024" zoomAndPan="magnify" viewBox="0 0 768 767.999994" height="1024" preserveAspectRatio="xMidYMid meet" version="1.0"><defs><clipPath id="970635c0b5"><path d="M 35 264 L 729 264 L 729 732.851562 L 35 732.851562 Z M 35 264 " clip-rule="nonzero"/></clipPath><clipPath id="c20f73fe08"><path d="M 221 26.867188 L 522 26.867188 L 522 328 L 221 328 Z M 221 26.867188 " clip-rule="nonzero"/></clipPath></defs><path fill="#bce3c9" d="M 480.933594 363.589844 L 516.644531 307.46875 L 567.664062 281.960938 C 574.464844 280.257812 589.089844 277.878906 593.171875 281.960938 C 597.253906 286.042969 656.097656 365.289062 685.007812 404.40625 L 710.515625 450.320312 C 705.414062 460.523438 694.1875 481.953125 690.109375 486.035156 C 686.027344 490.117188 647.59375 508.140625 628.886719 516.644531 C 618.683594 518.347656 597.253906 521.746094 593.171875 521.746094 C 589.089844 521.746094 540.453125 457.125 516.644531 424.8125 L 489.859375 378.894531 Z M 480.933594 363.589844 " fill-opacity="1" fill-rule="nonzero"/><path fill="#bce3c9" d="M 593.171875 521.746094 C 589.089844 521.746094 540.453125 457.125 516.644531 424.8125 L 489.859375 378.894531 L 419.710938 378.894531 C 414.609375 378.894531 389.097656 389.097656 378.894531 394.199219 L 348.285156 409.507812 C 338.082031 414.609375 327.878906 424.8125 322.773438 429.914062 C 317.671875 435.015625 307.46875 450.320312 307.46875 455.421875 C 307.46875 460.523438 307.46875 470.730469 312.570312 475.832031 C 317.671875 480.933594 327.878906 486.035156 332.980469 486.035156 L 363.589844 486.035156 C 371.753906 486.035156 394.199219 475.832031 404.40625 470.730469 C 407.804688 472.429688 415.628906 476.851562 419.710938 480.933594 C 423.792969 485.015625 458.824219 509.84375 475.832031 521.746094 L 516.644531 562.5625 C 523.449219 565.960938 538.074219 571.746094 542.15625 567.664062 C 546.234375 563.582031 560.859375 552.359375 567.664062 547.257812 L 582.96875 537.050781 Z M 593.171875 521.746094 " fill-opacity="1" fill-rule="nonzero"/><path fill="#bce3c9" d="M 185.027344 577.867188 C 185.027344 586.03125 198.628906 601.675781 205.433594 608.476562 L 241.144531 639.089844 L 261.554688 654.394531 L 281.960938 674.800781 C 288.761719 678.203125 302.367188 686.027344 302.367188 690.109375 C 302.367188 694.1875 322.773438 698.609375 332.980469 700.3125 C 338.082031 696.910156 349.304688 689.085938 353.386719 685.007812 C 358.488281 679.902344 358.488281 679.902344 358.488281 669.699219 C 358.488281 659.496094 358.488281 649.292969 353.386719 639.089844 C 348.285156 628.886719 348.285156 608.476562 343.183594 603.375 C 338.082031 598.273438 317.671875 588.070312 317.671875 582.96875 C 317.671875 577.867188 302.367188 557.460938 297.265625 552.359375 C 292.164062 547.257812 281.960938 526.847656 276.859375 521.746094 C 271.757812 516.644531 256.453125 506.441406 246.246094 511.542969 C 236.042969 516.644531 205.433594 542.15625 200.332031 547.257812 C 196.25 551.335938 188.425781 569.363281 185.027344 577.867188 Z M 185.027344 577.867188 " fill-opacity="1" fill-rule="nonzero"/><path fill="#bce3c9" d="M 281.960938 77.886719 C 312.570312 120.402344 400.324219 203.390625 506.441406 195.230469 L 486.035156 256.453125 L 455.421875 281.960938 L 358.488281 312.570312 L 281.960938 287.0625 L 236.042969 205.433594 L 241.144531 139.109375 L 266.65625 93.191406 Z M 281.960938 77.886719 " fill-opacity="1" fill-rule="nonzero"/><path fill="#1edfcd" d="M 370.378906 210.277344 C 364.992188 210.277344 358.386719 209.488281 353.863281 204.449219 C 352.292969 202.679688 350.914062 201.027344 349.578125 199.648438 C 338.804688 188.308594 320.25 204.058594 331.492188 218.777344 L 334.207031 222.28125 C 335.976562 224.488281 339.160156 227.046875 343.71875 229.960938 C 348.164062 232.792969 353.117188 234.839844 358.621094 236.058594 L 358.621094 255.507812 C 358.621094 262.199219 364.085938 267.710938 370.769531 267.710938 C 377.496094 267.710938 383.195312 262.199219 383.195312 255.507812 L 383.195312 235.941406 C 392.003906 233.898438 399.550781 229.605469 405.722656 223.109375 C 411.933594 216.613281 415.039062 207.992188 415.039062 197.246094 C 415.039062 189.925781 413.625 183.824219 410.792969 178.902344 C 407.964844 174.019531 404.503906 170.597656 400.375 168.667969 C 396.207031 166.738281 391.6875 165.042969 386.691406 163.589844 C 381.742188 162.132812 377.21875 161.109375 373.050781 160.480469 C 368.921875 159.886719 365.464844 158.628906 362.632812 156.78125 C 359.800781 154.886719 358.386719 152.449219 358.386719 149.417969 C 358.386719 134.929688 379.617188 136.703125 388.972656 144.574219 C 402.773438 156.1875 418.222656 134.929688 402.222656 122.925781 L 400.375 121.269531 C 399.113281 120.289062 396.914062 119.066406 393.730469 117.53125 C 390.582031 115.996094 387.042969 114.855469 383.191406 114.027344 L 383.191406 97.140625 C 383.191406 90.449219 377.726562 84.9375 371.003906 84.9375 C 364.320312 84.9375 358.816406 90.449219 358.816406 97.140625 L 358.816406 113.832031 C 349.851562 115.601562 342.421875 120.054688 337.273438 126.625 C 332.082031 133.320312 329.449219 140.71875 329.449219 148.984375 C 329.449219 157.289062 331.378906 164.101562 335.226562 169.496094 C 339.082031 174.882812 343.761719 178.664062 349.304688 180.871094 C 354.808594 183.074219 360.308594 184.847656 365.816406 186.144531 C 371.359375 187.484375 376.039062 188.9375 379.890625 190.632812 C 383.742188 192.285156 385.667969 194.609375 385.667969 197.640625 C 385.671875 206.0625 380.5625 210.277344 370.378906 210.277344 Z M 370.378906 210.277344 " fill-opacity="1" fill-rule="nonzero"/><g clip-path="url(#970635c0b5)"><path fill="#1edfcd" d="M 720.207031 425.152344 L 606.90625 280.03125 C 599.277344 270.230469 587.707031 264.605469 575.164062 264.605469 C 566.3125 264.605469 557.933594 267.417969 550.902344 272.753906 L 476.753906 329.273438 C 468.265625 335.742188 462.84375 345.128906 461.484375 355.707031 C 461.28125 357.28125 461.1875 358.855469 461.167969 360.417969 C 432.902344 358.277344 403.707031 360.429688 375.351562 378.859375 L 374.082031 379.683594 L 302.355469 368.714844 C 302.5 366.234375 302.421875 363.71875 302.09375 361.195312 C 300.726562 350.648438 295.3125 341.28125 286.84375 334.824219 L 212.675781 278.351562 C 195.296875 265.0625 170.175781 268.292969 156.664062 285.566406 L 129.652344 320.167969 C 124.925781 326.222656 126.003906 334.960938 132.058594 339.683594 C 138.113281 344.410156 146.851562 343.332031 151.574219 337.28125 L 178.578125 302.6875 C 182.664062 297.464844 190.542969 296.433594 195.804688 300.460938 L 269.988281 356.941406 C 272.5 358.859375 274.109375 361.640625 274.515625 364.773438 C 274.921875 367.914062 274.070312 371.023438 272.136719 373.507812 L 158.816406 518.65625 C 154.753906 523.871094 146.867188 524.886719 141.613281 520.902344 L 67.460938 464.375 C 64.933594 462.453125 63.320312 459.660156 62.917969 456.519531 C 62.515625 453.394531 63.363281 450.308594 65.316406 447.816406 L 84.582031 423.136719 C 89.304688 417.082031 88.230469 408.34375 82.175781 403.621094 C 76.121094 398.890625 67.382812 399.972656 62.65625 406.023438 L 43.402344 430.691406 C 36.84375 439.078125 33.976562 449.507812 35.332031 460.066406 C 36.691406 470.640625 42.117188 480.027344 50.601562 486.492188 L 124.777344 543.042969 C 131.996094 548.515625 140.527344 551.164062 149.003906 551.164062 C 153.90625 551.164062 158.78125 550.261719 163.378906 548.527344 L 172.980469 561.675781 C 167.761719 571.191406 166.949219 582.625 171.140625 593.660156 C 177.136719 609.4375 191.28125 620.136719 206.582031 620.644531 C 207.054688 622.890625 207.710938 625.136719 208.609375 627.363281 C 214.777344 642.644531 228.863281 653.046875 243.996094 653.730469 C 244.0625 654.128906 244.117188 654.527344 244.199219 654.921875 C 247.078125 668.914062 257.8125 680.867188 271.542969 685.367188 C 275.042969 686.515625 278.570312 687.101562 282.0625 687.207031 C 283.398438 692.839844 286.195312 698.28125 290.492188 703.058594 C 297.195312 710.507812 306.976562 715.269531 317.703125 715.269531 C 325.496094 715.269531 333.792969 712.742188 341.761719 706.914062 L 357.507812 721.632812 C 365.527344 729.117188 375.625 732.851562 385.625 732.851562 C 395.769531 732.851562 405.808594 729.007812 413.476562 721.332031 C 418.050781 716.753906 421.59375 711.3125 423.882812 705.578125 C 427.789062 706.765625 431.609375 707.328125 435.269531 707.328125 C 445.582031 707.328125 454.683594 702.972656 461.203125 696.257812 C 466.539062 690.761719 470.359375 683.445312 472.046875 675.648438 C 472.609375 675.679688 473.175781 675.703125 473.742188 675.707031 C 473.882812 675.707031 474.015625 675.707031 474.15625 675.707031 C 485.125 675.707031 495.648438 671.460938 503.082031 664.015625 C 508.289062 658.804688 511.867188 652.390625 513.578125 645.382812 C 516.230469 645.902344 518.894531 646.171875 521.554688 646.171875 C 524.902344 646.171875 528.238281 645.757812 531.527344 644.914062 C 544.9375 641.476562 555.292969 630.996094 558.550781 617.5625 C 561.558594 605.167969 558.457031 592.109375 550.023438 580.238281 C 571.863281 562.667969 580.695312 554.015625 590.671875 537.832031 C 597.484375 542.84375 605.78125 545.605469 614.546875 545.605469 C 623.425781 545.605469 631.820312 542.773438 638.800781 537.4375 L 712.996094 480.945312 C 721.460938 474.492188 726.875 465.128906 728.246094 454.578125 C 729.613281 444.015625 726.761719 433.570312 720.207031 425.152344 Z M 213.855469 589.980469 C 211.726562 591.90625 209.660156 592.882812 207.714844 592.882812 C 203.722656 592.882812 199.078125 588.886719 197.136719 583.785156 C 195.378906 579.152344 196.199219 575.277344 199.585938 572.273438 L 199.671875 572.195312 L 246.519531 530.558594 C 250.4375 527.082031 254.382812 525.242188 257.925781 525.242188 C 263.113281 525.242188 266.992188 529.179688 268.398438 532.84375 C 269.90625 536.753906 269 540.246094 265.722656 543.210938 L 257.558594 550.574219 L 257.535156 550.59375 C 257.496094 550.628906 257.457031 550.664062 257.417969 550.699219 C 257.125 550.964844 256.824219 551.238281 256.523438 551.507812 Z M 251.722656 623.21875 C 249.609375 625.082031 247.597656 625.988281 245.574219 625.988281 C 241.351562 625.988281 236.445312 622.019531 234.402344 616.953125 C 232.148438 611.371094 234.820312 608.792969 235.667969 607.976562 C 236.210938 607.457031 236.863281 606.832031 237.542969 606.105469 L 237.554688 606.09375 L 237.699219 605.964844 C 240.371094 603.578125 263.925781 582.292969 275.183594 572.125 L 276.019531 571.367188 C 279.835938 568.019531 283.699219 566.25 287.199219 566.25 C 292.71875 566.25 296.832031 570.476562 298.3125 574.402344 C 299.789062 578.304688 298.902344 581.71875 295.695312 584.542969 L 292.8125 587.078125 C 292.789062 587.097656 292.769531 587.113281 292.746094 587.132812 L 292.726562 587.152344 Z M 293.167969 653.230469 C 292.976562 653.402344 292.792969 653.582031 292.609375 653.757812 L 289.347656 656.703125 C 286.445312 659.324219 283.542969 660.039062 280.207031 658.941406 C 275.988281 657.558594 272.304688 653.511719 271.441406 649.320312 C 270.691406 645.675781 272.148438 642.296875 275.851562 639.035156 L 280.492188 634.980469 C 280.609375 634.878906 280.710938 634.765625 280.824219 634.660156 L 311.214844 607.929688 C 318.5 601.492188 325.714844 600.847656 330.515625 606.214844 C 331.1875 606.972656 336.914062 613.777344 329.925781 620.089844 L 311.257812 636.933594 C 311.058594 637.109375 310.855469 637.269531 310.660156 637.449219 C 310.589844 637.515625 310.53125 637.589844 310.460938 637.652344 L 293.378906 653.0625 C 293.3125 653.125 293.234375 653.167969 293.167969 653.230469 Z M 311.167969 684.457031 C 309.703125 682.832031 306.875 678.613281 311.515625 674.160156 L 330.136719 657.355469 C 331.542969 656.152344 332.902344 655.195312 334.171875 654.539062 C 334.230469 654.507812 334.292969 654.480469 334.347656 654.449219 C 341.855469 650.441406 345.921875 655.113281 346.992188 656.640625 C 348.367188 658.601562 350.042969 662.460938 345.828125 666.246094 L 333.070312 677.714844 C 333.023438 677.757812 332.976562 677.800781 332.925781 677.84375 L 327.398438 682.8125 C 318.308594 690.972656 312.675781 686.136719 311.167969 684.457031 Z M 531.523438 611.007812 C 530.667969 614.53125 528.152344 617.070312 524.625 617.976562 C 518.777344 619.472656 511.371094 616.222656 504.59375 609.269531 C 504.085938 608.707031 503.5625 608.152344 503.019531 607.613281 L 450.53125 555.730469 C 445.066406 550.332031 436.261719 550.382812 430.863281 555.847656 C 425.464844 561.308594 425.515625 570.113281 430.976562 575.507812 L 483.382812 627.308594 C 483.46875 627.402344 483.558594 627.492188 483.644531 627.585938 C 485.738281 629.738281 486.902344 632.613281 486.914062 635.730469 C 486.925781 639.019531 485.679688 642.085938 483.402344 644.363281 C 481.15625 646.617188 477.796875 647.898438 474.164062 647.898438 C 474.113281 647.898438 474.0625 647.898438 474.011719 647.898438 C 470.796875 647.867188 467.863281 646.789062 465.796875 644.910156 C 464.925781 643.785156 463.980469 642.695312 462.9375 641.648438 L 424.566406 603.230469 C 419.140625 597.800781 410.335938 597.792969 404.902344 603.21875 C 399.46875 608.644531 399.460938 617.449219 404.886719 622.882812 L 441.277344 659.316406 C 441.714844 659.960938 442.203125 660.578125 442.761719 661.15625 L 444.3125 662.753906 C 446.304688 666.550781 445.070312 672.953125 441.25 676.886719 C 435.355469 682.957031 427.0625 677.605469 421.152344 672.054688 L 404.71875 656.585938 C 399.128906 651.320312 390.328125 651.589844 385.0625 657.179688 C 379.800781 662.769531 380.066406 671.570312 385.65625 676.835938 L 398.210938 688.652344 C 398.242188 688.679688 398.265625 688.710938 398.296875 688.738281 C 398.582031 689.007812 399.015625 689.414062 399.035156 690.816406 C 399.089844 694.074219 396.9375 698.542969 393.804688 701.679688 C 389.226562 706.257812 381.621094 706.09375 376.492188 701.308594 L 362.730469 688.445312 L 364.414062 686.933594 C 378.058594 674.679688 380.261719 655.664062 369.769531 640.6875 C 366.355469 635.8125 362.078125 632.027344 357.28125 629.398438 C 364.042969 616.0625 362.152344 599.871094 351.238281 587.675781 C 345.082031 580.789062 336.386719 576.089844 326.679688 575.050781 C 326.402344 571.558594 325.636719 568.042969 324.328125 564.578125 C 319.605469 552.070312 309.105469 542.867188 296.746094 539.679688 C 297.261719 534.136719 296.496094 528.417969 294.355469 522.855469 C 288.503906 507.648438 273.867188 497.433594 257.925781 497.433594 C 247.476562 497.433594 237.148438 501.691406 228.054688 509.757812 L 192.554688 541.316406 L 184.75 530.628906 L 290.601562 395.050781 L 338.996094 402.453125 L 331.675781 407.203125 C 292.457031 432.648438 289.585938 462.234375 299.980469 481.445312 C 308.296875 496.820312 324.890625 505.609375 342.511719 505.609375 C 349.761719 505.609375 357.191406 504.121094 364.285156 500.984375 C 364.472656 500.902344 364.65625 500.816406 364.839844 500.722656 L 401.5 482.546875 L 422.664062 501.816406 C 422.6875 501.835938 422.707031 501.851562 422.726562 501.867188 C 422.746094 501.886719 422.765625 501.90625 422.785156 501.925781 L 520.605469 588.921875 C 528.988281 596.375 533.070312 604.632812 531.523438 611.007812 Z M 530.351562 560.375 L 441.328125 481.199219 L 413.199219 455.589844 C 408.960938 451.730469 402.792969 450.863281 397.660156 453.410156 L 352.785156 475.664062 C 340.59375 480.90625 328.601562 475.917969 324.4375 468.21875 C 318.714844 457.640625 327.285156 443.199219 346.808594 430.535156 L 390.5 402.183594 C 414.1875 386.785156 439.035156 385.597656 473.03125 389.542969 L 571.460938 515.664062 C 561.074219 534.316406 555.558594 540.238281 530.351562 560.375 Z M 700.664062 451 C 700.257812 454.132812 698.648438 456.910156 696.144531 458.824219 L 621.929688 515.328125 C 619.265625 517.367188 616.445312 517.796875 614.550781 517.796875 C 610.652344 517.792969 607.070312 516.078125 604.738281 513.09375 L 491.457031 367.945312 C 489.511719 365.460938 488.664062 362.375 489.066406 359.25 C 489.472656 356.109375 491.085938 353.316406 493.613281 351.390625 L 567.738281 294.886719 C 570.429688 292.847656 573.257812 292.417969 575.164062 292.417969 C 579.066406 292.417969 582.640625 294.128906 584.976562 297.128906 L 698.277344 442.253906 C 700.222656 444.753906 701.070312 447.859375 700.664062 451 Z M 700.664062 451 " fill-opacity="1" fill-rule="nonzero"/></g><g clip-path="url(#c20f73fe08)"><path fill="#1edfcd" d="M 300.203125 309.347656 C 322.035156 321.128906 346.695312 327.355469 371.519531 327.355469 C 454.28125 327.355469 521.617188 259.945312 521.617188 177.089844 C 521.617188 119.265625 487.855469 65.9375 435.621094 41.238281 C 415.5 31.703125 393.933594 26.867188 371.519531 26.867188 C 288.777344 26.867188 221.460938 94.257812 221.460938 177.089844 C 221.460938 232.339844 251.625 283.011719 300.203125 309.347656 Z M 371.519531 54.675781 C 389.78125 54.675781 407.339844 58.613281 423.722656 66.371094 C 466.296875 86.503906 493.804688 129.964844 493.804688 177.089844 C 493.804688 244.613281 438.949219 299.546875 371.519531 299.546875 C 351.289062 299.546875 331.195312 294.472656 313.433594 284.890625 C 273.855469 263.429688 249.269531 222.125 249.269531 177.089844 C 249.269531 109.59375 304.109375 54.675781 371.519531 54.675781 Z M 371.519531 54.675781 " fill-opacity="1" fill-rule="nonzero"/></g><path fill="#1edfcd" d="M 98.441406 382.5 C 101.003906 384.542969 104.066406 385.539062 107.105469 385.539062 C 111.191406 385.539062 115.238281 383.746094 117.984375 380.304688 L 118.140625 380.105469 C 122.929688 374.105469 121.949219 365.355469 115.945312 360.566406 C 109.941406 355.777344 101.191406 356.757812 96.402344 362.761719 L 96.246094 362.960938 C 91.457031 368.960938 92.441406 377.710938 98.441406 382.5 Z M 98.441406 382.5 " fill-opacity="1" fill-rule="nonzero"/></svg>